<?xml version="1.0" encoding="utf-8"?>
<!-- Generator: Adobe Illustrator 24.1.2, SVG Export Plug-In . SVG Version: 6.00 Build 0)  -->
<svg version="1.1" id="Layer_1" xmlns="http://www.w3.org/2000/svg" xmlns:xlink="http://www.w3.org/1999/xlink" x="0px" y="0px"
	 viewBox="0 0 1167.8 457.8" style="enable-background:new 0 0 1167.8 457.8;" xml:space="preserve">
<style type="text/css">
	.st0{fill:#669AB9;}
	.st1{fill:#FFFFFF;}
</style>
<rect class="st0" width="1167.8" height="457.8"/>
<path class="st1" d="M351.7,108.5h77.8c2.4,0,4.4,2,4.4,4.4v135.8c0,8.7,1.6,17.1,6.2,24.6c7.6,12.6,21.8,18.4,38.3,15.8
	c14.2-2.2,24.9-12.5,28.1-27.5c1.1-5.5,1.7-11,1.7-16.6c0.1-43.7,0.1-87.4,0.1-131v-1c0-2.4,2-4.4,4.4-4.4h77.9
	c2.4,0,4.4,1.9,4.4,4.3c0,0,0,0,0,0.1l0,0c0,46.2,0.2,92.5-0.1,138.7c-0.2,31.6-9.3,59.9-32.5,82.5c-17.5,17.1-38.9,26.7-62.9,30.7
	c-30.4,5-60.2,3.2-88.5-9.7c-35.7-16.3-56-44.4-62-82.9c-1.1-7.7-1.7-15.6-1.6-23.4c-0.1-45-0.1-89.8-0.1-134.8v-1
	c-0.1-2.4,1.8-4.5,4.2-4.6C351.6,108.5,351.6,108.5,351.7,108.5z"/>
<path class="st1" d="M1085.3,184.3c-2,0-3.7-1.4-4.1-3.3c-4.4-18.1-26.5-26.3-42.2-14.8c-9.4,6.9-9.1,20.8,1.3,25.8
	c8.1,3.8,17.2,6,26,7.9c18.6,3.9,37.5,6.1,55.4,12.9c18.8,7.2,34.2,18.4,41,38c12.5,36,3.3,79.3-39.3,101.7
	c-23.6,12.4-49,15.6-75.2,14.5c-24-1-46.6-6.4-66.7-20.2c-21.6-14.9-34.8-39.3-35.5-65.5c-0.1-2.3,1.8-4.2,4.1-4.3c0,0,0.1,0,0.1,0
	h74.8c2.1,0,3.9,1.5,4.2,3.6l0.3,2.1c2.5,12.6,12,20.1,26.7,20.7c6.5,0.3,12.8-0.9,18.4-4.6c11.2-7.5,10.9-22.5-1.3-27.9
	c-9.1-4-19.2-6.3-29.1-8.3c-16.7-3.3-33.5-5.7-49.4-12.2c-22.3-9.1-38.5-23.8-43.8-48.2c-8.4-38.7,7.2-72.8,43.3-89.2
	c40.2-18.3,81.6-18.7,122-0.1c28.1,12.9,43.6,35.9,46.2,67.1v0.5c0.1,2.3-1.7,4.3-4,4.4c-0.1,0-0.1,0-0.2,0L1085.3,184.3z"/>
<path class="st1" d="M629.9,113.4c0-2.8,2.2-5,5-5h6.6c14.2,0,28.3,0.1,42.5-0.1c2.9,0,4.3,0.9,5.5,3.5c3.6,7.7,7.4,15.3,11.1,23
	c0.1,0.4,0.6,0.5,0.9,0.4c0.1,0,0.2-0.1,0.3-0.2c3.6-3.5,7-6.9,10.7-9.9c15.9-13,34.6-17.5,54.7-17.8c6.9-0.1,13.8,0,20.9,0
	c2.8,0,5,2.2,5,5v69.2c0,2.8-2.2,5-5,5l0,0c-13.1,0.2-26.3-0.3-39.4,0.9c-18.6,1.7-28.8,12.2-31.4,30.6c-0.7,4.5-1,9-1,13.6
	c-0.1,40.7,0,81.3,0,122v0.4c0,2.8-2.2,5-5,5H635c-2.8,0-5-2.2-5-5C629.9,273.9,629.9,193.7,629.9,113.4z"/>
<path class="st1" d="M830.5,108.6h77.7c2.4,0,4.3,1.9,4.3,4.2c0,0,0,0,0,0.1v241.9c0,2.4-1.9,4.3-4.2,4.3c0,0,0,0-0.1,0h-77.7
	c-2.4,0-4.3-1.9-4.3-4.2c0,0,0,0,0-0.1V112.9C826.2,110.5,828.1,108.6,830.5,108.6C830.5,108.6,830.5,108.6,830.5,108.6z"/>
<path class="st1" d="M826.8,68.7V4.2c0-2.3,1.9-4.2,4.2-4.2h76.3c2.3,0,4.2,1.9,4.2,4.2v64.4c0,2.3-1.9,4.2-4.2,4.2H831
	c-2.3,0.1-4.1-1.7-4.2-4C826.8,68.8,826.8,68.7,826.8,68.7z"/>
<path class="st1" d="M136,97.1C60.9,97.1,0,158,0,233.1s60.9,136,136,136s136-60.9,136-136S211.1,97.1,136,97.1
	C136,97.1,136,97.1,136,97.1z M136,322.9c-49.6,0-89.8-40.2-89.8-89.8s40.2-89.8,89.8-89.8s89.8,40.2,89.8,89.8
	C225.8,282.7,185.6,322.9,136,322.9C136,322.9,136,322.9,136,322.9z"/>
<path class="st1" d="M136,151.1c-45.3,0-82.1,36.8-82.1,82.1s36.8,82.1,82.1,82.1s82.1-36.8,82.1-82.1
	C218.1,187.9,181.4,151.1,136,151.1C136,151.1,136,151.1,136,151.1z M136,274c-22.5,0-40.8-18.3-40.8-40.8s18.3-40.8,40.8-40.8
	c22.5,0,40.8,18.3,40.8,40.8C176.8,255.7,158.6,274,136,274C136,274,136,274,136,274z"/>
<circle class="st1" cx="136" cy="233.1" r="32.4"/>
<path class="st1" d="M307.3,358.4h-57.4c-2.3,0-4.2-1.9-4.2-4.2V112.1c0-2.3,1.9-4.2,4.2-4.2h57.4c2.3,0,4.2,1.9,4.2,4.2v242.1
	C311.5,356.5,309.6,358.4,307.3,358.4z"/>
<g>
	<path class="st1" d="M644.9,433.6v21.5h-15.3v-63.3h25.2c4.4-0.1,8.8,0.8,12.8,2.7c3.5,1.6,6.5,4.3,8.6,7.6
		c2.1,3.4,3.1,7.3,3.1,11.2c0,6.2-2.2,11.1-6.6,14.8s-10.5,5.5-18.2,5.5H644.9z M644.9,421.9h10c3,0,5.2-0.7,6.8-2.2
		s2.3-3.6,2.3-6.3c0.1-2.6-0.7-5.1-2.4-7.1c-1.7-1.8-4-2.8-6.5-2.7h-10.2V421.9L644.9,421.9z"/>
	<path class="st1" d="M711.1,432.7h-8.3v22.4h-15.3v-63.3h24.9c7.5,0,13.4,1.7,17.6,5s6.3,8,6.3,14.1c0.1,3.8-0.8,7.6-2.7,10.9
		c-2.1,3.1-5,5.5-8.4,7l13.2,25.5v0.7h-16.3L711.1,432.7z M702.9,421h9.6c2.9,0,5.1-0.8,6.5-2.3c2.9-3.8,2.9-9,0-12.8
		c-1.8-1.6-4.1-2.4-6.5-2.3h-9.6V421z"/>
	<path class="st1" d="M799.2,424.8c0.1,5.7-1,11.3-3.4,16.4c-2.1,4.6-5.5,8.4-9.8,11c-8.9,5-19.8,5.1-28.7,0.1
		c-4.2-2.5-7.6-6.2-9.8-10.6c-2.5-4.9-3.7-10.4-3.7-15.9v-3.6c-0.1-5.7,1-11.3,3.4-16.4c2.1-4.5,5.5-8.4,9.8-11
		c8.9-5.2,19.9-5.2,28.8-0.1c4.3,2.6,7.7,6.4,9.8,10.9c2.4,5.1,3.6,10.6,3.5,16.2v3H799.2z M783.7,422.1c0-6.3-1-11.1-3.2-14.3
		c-1.9-3.2-5.3-5-9-4.9c-7.6,0-11.7,5.7-12.1,17.2v4.6c0,6.2,1,11,3.1,14.3c1.9,3.2,5.4,5.2,9.2,5c3.6,0.1,7.1-1.7,8.9-4.9
		c2.1-3.3,3.1-8,3.2-14.1v-2.9L783.7,422.1z"/>
	<path class="st1" d="M853.1,403.6h-19v51.5h-15.3v-51.5h-18.6v-11.8h52.9L853.1,403.6L853.1,403.6z"/>
	<path class="st1" d="M898.8,428.2h-24v15.1h28.3V455h-43.6v-63.3h43.7v11.8h-28.4v13.3h24V428.2z"/>
	<path class="st1" d="M960.5,433.7c-0.1,4.2-1.4,8.2-3.6,11.7c-2.2,3.4-5.4,6.1-9.1,7.8c-4.2,2-8.8,2.9-13.5,2.8
		c-8.3,0-14.9-2.7-19.6-8.1s-7.2-13.1-7.2-22.9v-3.1c-0.1-5.6,1-11.2,3.2-16.3c2-4.4,5.2-8.1,9.3-10.8c4.2-2.6,9.1-3.9,14.1-3.8
		c7.7,0,13.8,2,18.5,6.1s7.3,9.6,8,16.7h-15.2c-0.1-3.9-1.1-6.6-2.9-8.3s-4.6-2.5-8.3-2.5s-6.6,1.4-8.3,4.3s-2.7,7.4-2.8,13.6v4.5
		c0,6.8,0.8,11.6,2.5,14.5s4.6,4.3,8.8,4.3c3.5,0,6.2-0.8,8-2.5s2.8-4.3,3-7.9h15.1V433.7z"/>
	<path class="st1" d="M1016.1,403.6h-19v51.5h-15.3v-51.5h-18.6v-11.8h52.9L1016.1,403.6L1016.1,403.6z"/>
	<path class="st1" d="M1038.8,455.1h-15.2v-63.3h15.2V455.1z"/>
	<path class="st1" d="M1103,424.8c0.1,5.7-1,11.3-3.4,16.4c-2.1,4.6-5.5,8.4-9.8,11c-8.9,5-19.8,5.1-28.7,0.1
		c-4.2-2.5-7.6-6.2-9.8-10.6c-2.5-4.9-3.7-10.4-3.7-15.9v-3.6c-0.1-5.7,1-11.3,3.4-16.4c2.1-4.5,5.5-8.4,9.8-11
		c8.9-5.2,19.9-5.2,28.8-0.1c4.3,2.6,7.7,6.4,9.8,10.9c2.4,5.1,3.6,10.6,3.5,16.2L1103,424.8L1103,424.8z M1087.5,422.1
		c0-6.3-1.1-11.1-3.2-14.3c-1.9-3.2-5.3-5-9-4.9c-7.6,0-11.7,5.7-12.1,17.2v4.6c0,6.2,1,11,3.1,14.3c1.9,3.2,5.4,5.2,9.2,5
		c3.6,0.1,7.1-1.7,8.9-4.9c2.1-3.3,3.1-8,3.2-14.1L1087.5,422.1L1087.5,422.1z"/>
	<path class="st1" d="M1163.7,455.1h-15.2l-22.4-39.4v39.4h-15.3v-63.3h15.3l22.4,39.4v-39.4h15.2V455.1z"/>
</g>
</svg>
